<svg width="30" height="30" viewBox="0 0 30 30" fill="none" xmlns="http://www.w3.org/2000/svg">
<path d="M0.986421 15.0158C0.988783 15.1664 1.02514 15.3146 1.09278 15.4492C1.16042 15.5838 1.25759 15.7013 1.37705 15.7931C1.37899 15.7944 1.38095 15.7957 1.38291 15.797L6.29306 20.7072C6.38521 20.8032 6.49558 20.8798 6.6177 20.9326C6.73983 20.9854 6.87127 21.0132 7.00431 21.0146C7.13735 21.016 7.26932 20.9907 7.3925 20.9405C7.51567 20.8902 7.62758 20.8158 7.72166 20.7217C7.81573 20.6276 7.8901 20.5157 7.94039 20.3926C7.99067 20.2694 8.01588 20.1374 8.01453 20.0044C8.01317 19.8713 7.98529 19.7399 7.9325 19.6178C7.87972 19.4956 7.8031 19.3853 7.70712 19.2931L4.41416 16.0002H28.0001C28.1326 16.002 28.2642 15.9776 28.3871 15.9281C28.5101 15.8787 28.622 15.8054 28.7164 15.7123C28.8108 15.6193 28.8857 15.5084 28.9368 15.3861C28.988 15.2639 29.0143 15.1327 29.0143 15.0002C29.0143 14.8676 28.988 14.7364 28.9368 14.6142C28.8857 14.4919 28.8108 14.381 28.7164 14.288C28.622 14.195 28.5101 14.1216 28.3871 14.0722C28.2642 14.0228 28.1326 13.9983 28.0001 14.0002L4.41416 14.0002L7.70712 10.7072C7.8031 10.615 7.87972 10.5047 7.93251 10.3826C7.98529 10.2604 8.01318 10.129 8.01453 9.99595C8.01588 9.86291 7.99068 9.73094 7.94039 9.60776C7.8901 9.48458 7.81574 9.37268 7.72166 9.2786C7.62758 9.18452 7.51568 9.11016 7.3925 9.05987C7.26932 9.00958 7.13735 8.98437 7.00431 8.98573C6.87127 8.98708 6.73983 9.01496 6.6177 9.06775C6.49558 9.12053 6.38521 9.19716 6.29306 9.29313L1.37705 14.2091C1.25368 14.3039 1.15413 14.4262 1.08632 14.5663C1.0185 14.7063 0.984299 14.8602 0.986421 15.0158Z" fill="#39A05F" fill-opacity="0.56"/>
</svg>
