<svg width="30" height="30" viewBox="0 0 30 30" fill="none" xmlns="http://www.w3.org/2000/svg">
<path d="M29.0136 15.0158C29.0112 15.1664 28.9749 15.3146 28.9072 15.4492C28.8396 15.5838 28.7424 15.7013 28.623 15.7931C28.621 15.7944 28.6191 15.7957 28.6171 15.797L23.7069 20.7072C23.6148 20.8032 23.5044 20.8798 23.3823 20.9326C23.2602 20.9854 23.1287 21.0132 22.9957 21.0146C22.8627 21.016 22.7307 20.9907 22.6075 20.9405C22.4843 20.8902 22.3724 20.8158 22.2783 20.7217C22.1843 20.6276 22.1099 20.5157 22.0596 20.3926C22.0093 20.2694 21.9841 20.1374 21.9855 20.0044C21.9868 19.8713 22.0147 19.7399 22.0675 19.6178C22.1203 19.4956 22.1969 19.3853 22.2929 19.2931L25.5858 16.0002H1.99991C1.8674 16.002 1.73583 15.9776 1.61286 15.9281C1.48989 15.8787 1.37797 15.8054 1.2836 15.7123C1.18923 15.6193 1.1143 15.5084 1.06315 15.3861C1.012 15.2639 0.985664 15.1327 0.985664 15.0002C0.985664 14.8676 1.012 14.7364 1.06315 14.6142C1.1143 14.4919 1.18923 14.381 1.2836 14.288C1.37797 14.195 1.48989 14.1216 1.61286 14.0722C1.73583 14.0228 1.8674 13.9983 1.99991 14.0002L25.5858 14.0002L22.2929 10.7072C22.1969 10.615 22.1203 10.5047 22.0675 10.3826C22.0147 10.2604 21.9868 10.129 21.9855 9.99595C21.9841 9.86291 22.0093 9.73094 22.0596 9.60776C22.1099 9.48458 22.1843 9.37268 22.2783 9.2786C22.3724 9.18452 22.4843 9.11016 22.6075 9.05987C22.7307 9.00958 22.8627 8.98437 22.9957 8.98573C23.1287 8.98708 23.2602 9.01496 23.3823 9.06775C23.5044 9.12053 23.6148 9.19716 23.7069 9.29313L28.623 14.2091C28.7463 14.3039 28.8459 14.4262 28.9137 14.5663C28.9815 14.7063 29.0157 14.8602 29.0136 15.0158Z" fill="#39A05F"/>
</svg>
