<svg viewBox="0 0 30 30" xmlns="http://www.w3.org/2000/svg">
<path d="M23 3L21 2L19 3L17 2L15 3L13 2L11 3L9 2L7 3L5 2V26C5 27.105 5.895 28 7 28H23C24.105 28 25 27.105 25 26V2L23 3ZM16 23H10C9.448 23 9 22.552 9 22C9 21.448 9.448 21 10 21H16C16.552 21 17 21.448 17 22C17 22.552 16.552 23 16 23ZM9 18C9 17.448 9.448 17 10 17H14C14.552 17 15 17.448 15 18C15 18.552 14.552 19 14 19H10C9.448 19 9 18.552 9 18ZM16 15H10C9.448 15 9 14.552 9 14C9 13.448 9.448 13 10 13H16C16.552 13 17 13.448 17 14C17 14.552 16.552 15 16 15ZM20 23C19.448 23 19 22.552 19 22C19 21.448 19.448 21 20 21C20.552 21 21 21.448 21 22C21 22.552 20.552 23 20 23ZM20 19C19.448 19 19 18.552 19 18C19 17.448 19.448 17 20 17C20.552 17 21 17.448 21 18C21 18.552 20.552 19 20 19ZM20 15C19.448 15 19 14.552 19 14C19 13.448 19.448 13 20 13C20.552 13 21 13.448 21 14C21 14.552 20.552 15 20 15ZM20 9H10C9.448 9 9 8.552 9 8C9 7.448 9.448 7 10 7H20C20.552 7 21 7.448 21 8C21 8.552 20.552 9 20 9Z" />
</svg>
