<svg width="30" height="31" viewBox="0 0 30 31" fill="none" xmlns="http://www.w3.org/2000/svg">
<path d="M3.00008 23.0271C2.86757 23.029 2.73601 23.0045 2.61304 22.9551C2.49007 22.9057 2.37815 22.8323 2.28378 22.7393C2.18941 22.6462 2.11447 22.5353 2.06333 22.4131C2.01218 22.2908 1.98584 22.1596 1.98584 22.0271C1.98584 21.8946 2.01218 21.7634 2.06333 21.6411C2.11447 21.5189 2.18941 21.408 2.28378 21.3149C2.37815 21.2219 2.49007 21.1485 2.61304 21.0991C2.73601 21.0497 2.86757 21.0252 3.00008 21.0271L27.0001 21.0271C27.1326 21.0252 27.2642 21.0497 27.3871 21.0991C27.5101 21.1485 27.622 21.2219 27.7164 21.3149C27.8108 21.408 27.8857 21.5189 27.9368 21.6411C27.988 21.7634 28.0143 21.8946 28.0143 22.0271C28.0143 22.1596 27.988 22.2908 27.9368 22.4131C27.8857 22.5353 27.8108 22.6462 27.7164 22.7393C27.622 22.8323 27.5101 22.9057 27.3871 22.9551C27.2642 23.0045 27.1326 23.029 27.0001 23.0271L3.00008 23.0271ZM3.00008 16.0271C2.86757 16.029 2.73601 16.0045 2.61304 15.9551C2.49007 15.9057 2.37815 15.8323 2.28378 15.7393C2.18941 15.6462 2.11447 15.5353 2.06333 15.4131C2.01218 15.2908 1.98584 15.1596 1.98584 15.0271C1.98584 14.8946 2.01218 14.7634 2.06333 14.6411C2.11447 14.5189 2.18941 14.408 2.28378 14.3149C2.37815 14.2219 2.49007 14.1485 2.61304 14.0991C2.73601 14.0497 2.86757 14.0252 3.00008 14.0271L27.0001 14.0271C27.1326 14.0252 27.2642 14.0497 27.3871 14.0991C27.5101 14.1485 27.622 14.2219 27.7164 14.3149C27.8108 14.408 27.8857 14.5189 27.9368 14.6411C27.988 14.7634 28.0143 14.8946 28.0143 15.0271C28.0143 15.1596 27.988 15.2908 27.9368 15.4131C27.8857 15.5353 27.8108 15.6462 27.7164 15.7393C27.622 15.8323 27.5101 15.9057 27.3871 15.9551C27.2642 16.0045 27.1326 16.029 27.0001 16.0271L3.00008 16.0271ZM3.00008 9.0271C2.86757 9.02897 2.73601 9.00449 2.61304 8.95508C2.49007 8.90566 2.37815 8.8323 2.28378 8.73926C2.18941 8.64621 2.11447 8.53534 2.06333 8.41308C2.01218 8.29083 1.98584 8.15962 1.98584 8.0271C1.98584 7.89457 2.01218 7.76337 2.06333 7.64111C2.11447 7.51886 2.18941 7.40798 2.28378 7.31494C2.37815 7.22189 2.49007 7.14853 2.61304 7.09912C2.73601 7.04971 2.86757 7.02522 3.00008 7.0271L27.0001 7.0271C27.1326 7.02522 27.2642 7.04971 27.3871 7.09912C27.5101 7.14853 27.622 7.22189 27.7164 7.31494C27.8108 7.40798 27.8857 7.51886 27.9368 7.64111C27.988 7.76337 28.0143 7.89457 28.0143 8.0271C28.0143 8.15962 27.988 8.29083 27.9368 8.41308C27.8857 8.53534 27.8108 8.64621 27.7164 8.73926C27.622 8.8323 27.5101 8.90566 27.3871 8.95508C27.2642 9.00449 27.1326 9.02897 27.0001 9.0271L3.00008 9.0271Z" fill="#1A1A1F"/>
</svg>
