<svg viewBox="0 0 30 31" xmlns="http://www.w3.org/2000/svg">
<path d="M20.9721 8.50042C20.9349 8.50159 20.8978 8.50485 20.861 8.51016H15.0022C14.8699 8.50829 14.7385 8.53273 14.6158 8.58206C14.493 8.63139 14.3813 8.70462 14.2871 8.7975C14.1929 8.89038 14.1181 9.00106 14.067 9.1231C14.016 9.24514 13.9897 9.37611 13.9897 9.5084C13.9897 9.6407 14.016 9.77167 14.067 9.89371C14.1181 10.0158 14.1929 10.1264 14.2871 10.2193C14.3813 10.3122 14.493 10.3854 14.6158 10.4348C14.7385 10.4841 14.8699 10.5085 15.0022 10.5066H18.5818L8.30692 20.7815C8.21112 20.8735 8.13463 20.9837 8.08193 21.1056C8.02924 21.2275 8.0014 21.3587 8.00005 21.4915C7.9987 21.6243 8.02386 21.756 8.07406 21.879C8.12426 22.002 8.19849 22.1137 8.29241 22.2076C8.38632 22.3015 8.49803 22.3757 8.62099 22.4259C8.74395 22.4761 8.87569 22.5013 9.0085 22.4999C9.14131 22.4986 9.27251 22.4708 9.39442 22.4181C9.51634 22.3654 9.62651 22.2889 9.7185 22.1931L19.9934 11.9182V15.4978C19.9915 15.6301 20.0159 15.7615 20.0652 15.8842C20.1146 16.007 20.1878 16.1187 20.2807 16.2129C20.3736 16.3071 20.4842 16.3819 20.6063 16.433C20.7283 16.484 20.8593 16.5103 20.9916 16.5103C21.1239 16.5103 21.2549 16.484 21.3769 16.433C21.4989 16.3819 21.6096 16.3071 21.7025 16.2129C21.7954 16.1187 21.8686 16.007 21.9179 15.8842C21.9673 15.7615 21.9917 15.6301 21.9898 15.4978V9.63513C22.0097 9.49141 21.998 9.34509 21.9556 9.20634C21.9132 9.0676 21.841 8.93977 21.7441 8.83176C21.6472 8.72375 21.528 8.63815 21.3947 8.58093C21.2613 8.5237 21.1171 8.49623 20.9721 8.50042Z" />
</svg>
