<svg viewBox="0 0 30 30" xmlns="http://www.w3.org/2000/svg">
<path d="M13 2C12.448 2 12 2.448 12 3V7.55273L9.84378 11.4668C9.75388 11.3242 9.62939 11.2066 9.48187 11.125C9.33436 11.0434 9.16861 11.0004 9.00003 11H3.00003C2.86274 10.9999 2.72691 11.0282 2.601 11.0829C2.4751 11.1376 2.3618 11.2176 2.26817 11.318C2.17455 11.4185 2.10259 11.5371 2.0568 11.6665C2.011 11.7959 1.99234 11.9334 2.00198 12.0703L3.00198 26.0703C3.0198 26.3228 3.13271 26.5592 3.31793 26.7317C3.50315 26.9042 3.7469 27.0001 4.00003 27H9.00003C9.26523 27 9.51957 26.8946 9.7071 26.7071C9.89463 26.5195 10 26.2652 10 26H11.6485C12.0039 26.6042 12.6375 27 13.3535 27H23C23.5305 27 24.0392 26.7893 24.4142 26.4142C24.7893 26.0391 25 25.5304 25 25C24.9992 24.6441 24.9035 24.2948 24.7227 23.9883C25.3444 23.9327 25.9228 23.6465 26.3442 23.1861C26.7657 22.7256 26.9996 22.1242 27 21.5C26.999 20.8885 26.7739 20.2985 26.3672 19.8418C26.8459 19.6648 27.2589 19.3455 27.5508 18.9269C27.8426 18.5083 27.9994 18.0103 28 17.5C27.9996 17.1116 27.9086 16.7286 27.7343 16.3814C27.5601 16.0342 27.3073 15.7325 26.9961 15.5C27.3073 15.2675 27.5601 14.9658 27.7343 14.6186C27.9086 14.2714 27.9996 13.8884 28 13.5C28 12.837 27.7366 12.2011 27.2678 11.7322C26.799 11.2634 26.1631 11 25.5 11H16.5078C16.769 9.83382 17 8.59022 17 8C17 5.709 15.1861 2 13.9551 2H13ZM4.07424 13H8.00003V25H4.93167L4.07424 13Z" />
</svg>
