<svg viewBox="0 0 24 24" xmlns="http://www.w3.org/2000/svg">
  <path
    d="M12.0001 21.6C6.6985 21.6 2.4001 17.3016 2.4001 12C2.4001 6.69842 6.6985 2.40002 12.0001 2.40002C17.3017 2.40002 21.6001 6.69842 21.6001 12C21.6001 17.3016 17.3017 21.6 12.0001 21.6ZM16.5657 11.4344L13.3657 8.23442C13.2097 8.07842 13.0049 8.00002 12.8001 8.00002C12.5953 8.00002 12.3905 8.07842 12.2345 8.23442C11.9217 8.54722 11.9217 9.05282 12.2345 9.36562L14.0689 11.2L8.0001 11.2C7.5585 11.2 7.2001 11.5576 7.2001 12C7.2001 12.4424 7.5585 12.8 8.0001 12.8L14.0689 12.8L12.2345 14.6344C11.9217 14.9472 11.9217 15.4528 12.2345 15.7656C12.5473 16.0784 13.0529 16.0784 13.3657 15.7656L16.5657 12.5656C16.8785 12.2528 16.8785 11.7472 16.5657 11.4344Z" />
</svg>