<svg width="24" height="25" viewBox="0 0 24 25" fill="none" xmlns="http://www.w3.org/2000/svg">
  <path d="M12.0001 0.5C5.38463 0.5 0.000100007 5.88453 0.000100007 12.5C-0.00177404 12.6325 0.0227073 12.7641 0.072121 12.887C0.121535 13.01 0.194895 13.1219 0.28794 13.2163C0.380984 13.3107 0.491857 13.3856 0.614114 13.4368C0.736371 13.4879 0.867575 13.5142 1.0001 13.5142C1.13263 13.5142 1.26383 13.4879 1.38609 13.4368C1.50834 13.3856 1.61922 13.3107 1.71226 13.2163C1.8053 13.1219 1.87867 13.01 1.92808 12.887C1.97749 12.7641 2.00197 12.6325 2.0001 12.5C2.0001 6.96547 6.46557 2.5 12.0001 2.5C17.5346 2.5 22.0001 6.96547 22.0001 12.5C21.9982 12.6325 22.0227 12.7641 22.0721 12.887C22.1215 13.01 22.1949 13.1219 22.2879 13.2163C22.381 13.3107 22.4919 13.3856 22.6141 13.4368C22.7364 13.4879 22.8676 13.5142 23.0001 13.5142C23.1326 13.5142 23.2638 13.4879 23.3861 13.4368C23.5083 13.3856 23.6192 13.3107 23.7123 13.2163C23.8053 13.1219 23.8787 13.01 23.9281 12.887C23.9775 12.7641 24.002 12.6325 24.0001 12.5C24.0001 5.88453 18.6156 0.5 12.0001 0.5ZM1.72862 15.4102L0.927834 15.8125L0.769631 16.6934L1.38096 17.3477L1.72862 17.4102L2.5294 17.0078L2.6876 16.127L2.07627 15.4727L1.72862 15.4102ZM21.0899 17.6562L20.2892 18.0566L20.131 18.9395L20.7423 19.5938L21.0899 19.6562L21.8907 19.2539L22.0489 18.373L21.4376 17.7188L21.0899 17.6562ZM3.79307 18.8066L2.99229 19.209L2.83408 20.0898L3.44737 20.7441L3.79307 20.8066L4.59385 20.4043L4.75205 19.5234L4.14073 18.8691L3.79307 18.8066ZM18.3048 20.4883L17.504 20.8906L17.3458 21.7715L17.9571 22.4258L18.3048 22.4883L19.1056 22.0859L19.2638 21.2051L18.6505 20.5508L18.3048 20.4883ZM6.92783 21.2539L6.1251 21.6562L5.96885 22.5371L6.58018 23.1914L6.92783 23.2539L7.72862 22.8535L7.88682 21.9707L7.27354 21.3164L6.92783 21.2539ZM14.6974 22.1602L13.8966 22.5625L13.7384 23.4453L14.3497 24.0996L14.6974 24.1602L15.4981 23.7598L15.6564 22.877L15.045 22.2227L14.6974 22.1602ZM10.7286 22.4199L9.92783 22.8223L9.76963 23.7051L10.3829 24.3594L10.7286 24.4199L11.5294 24.0195L11.6876 23.1367L11.0763 22.4824L10.7286 22.4199Z" fill="white"/>
  </svg>
  