<svg viewBox="0 0 28 29" xmlns="http://www.w3.org/2000/svg">
<path d="M14 3.30005C17.6083 3.30005 20.5333 6.22512 20.5333 9.83338C20.5333 13.1237 18.0979 15.8377 14.9333 16.292V24.7667C14.9351 24.8904 14.9122 25.0132 14.8661 25.128C14.82 25.2427 14.7515 25.3472 14.6647 25.4353C14.5778 25.5233 14.4744 25.5933 14.3602 25.641C14.2461 25.6888 14.1237 25.7133 14 25.7133C13.8763 25.7133 13.7538 25.6888 13.6397 25.641C13.5256 25.5933 13.4222 25.5233 13.3353 25.4353C13.2485 25.3472 13.18 25.2427 13.1339 25.128C13.0878 25.0132 13.0649 24.8904 13.0667 24.7667V16.292C9.90207 15.8377 7.46666 13.1237 7.46666 9.83338C7.46666 6.22512 10.3917 3.30005 14 3.30005ZM14 5.16672C12.8399 5.16672 11.9 5.79392 11.9 6.56672C11.9 7.33952 12.8399 7.96672 14 7.96672C15.1601 7.96672 16.1 7.33952 16.1 6.56672C16.1 5.79392 15.1601 5.16672 14 5.16672Z" />
</svg>
