<svg viewBox="0 0 31 30" xmlns="http://www.w3.org/2000/svg">
<path d="M15.5 3C12.5 3 10.5 4 10.5 4C10.5 4 9.5 6 9.5 10H9.625C9.781 10.686 10.0273 11.2148 10.0273 11.2148C9.81534 11.3368 9.46669 11.7241 9.55469 12.4121C9.71869 13.6951 10.2749 14.0199 10.6289 14.0469C10.7639 15.2449 12.05 16.777 12.5 17V19C12.4978 19.0066 12.4925 19.011 12.4902 19.0176C12.1595 19.0586 11.8645 19.2538 11.7148 19.5566L11.4023 20.1855C8.93429 21.5694 3.5 21.2263 3.5 27H27.5C27.5 21.2263 22.0657 21.5694 19.5977 20.1855L19.2852 19.5566C19.1355 19.2538 18.8405 19.0586 18.5098 19.0176C18.5075 19.011 18.5022 19.0066 18.5 19V17C18.95 16.777 20.2361 15.2458 20.3711 14.0488C20.7251 14.0218 21.2813 13.6951 21.4453 12.4121C21.5333 11.7231 21.1847 11.3368 20.9727 11.2148L21.3848 10H21.5C21.5 7 20.5 4 20.5 4C20.5 4 18.5 3 15.5 3ZM15.5 4C16.052 4 16.5 4.448 16.5 5V6H17.5C18.052 6 18.5 6.448 18.5 7C18.5 7.552 18.052 8 17.5 8H16.5V9C16.5 9.552 16.052 10 15.5 10C14.948 10 14.5 9.552 14.5 9V8H13.5C12.948 8 12.5 7.552 12.5 7C12.5 6.448 12.948 6 13.5 6H14.5V5C14.5 4.448 14.948 4 15.5 4Z" />
</svg>
