<svg viewBox="0 0 30 31" xmlns="http://www.w3.org/2000/svg">
<path d="M22.707 21.793C23.098 22.184 23.098 22.816 22.707 23.207C22.512 23.402 22.256 23.5 22 23.5C21.744 23.5 21.488 23.402 21.293 23.207L15 16.914L8.70701 23.207C8.51201 23.402 8.25601 23.5 8.00001 23.5C7.74401 23.5 7.48801 23.402 7.29301 23.207C6.90201 22.816 6.90201 22.184 7.29301 21.793L13.586 15.5L7.29301 9.20701C6.90201 8.81601 6.90201 8.18401 7.29301 7.79301C7.68401 7.40201 8.31601 7.40201 8.70701 7.79301L15 14.086L21.293 7.79301C21.684 7.40201 22.316 7.40201 22.707 7.79301C23.098 8.18401 23.098 8.81601 22.707 9.20701L16.414 15.5L22.707 21.793Z" />
</svg>
