<svg viewBox="0 0 30 30" xmlns="http://www.w3.org/2000/svg">
<path d="M5 4C3.895 4 3 4.895 3 6V14C3 15.105 3.895 16 5 16H9.04102C9.06595 17.7862 8.89122 21.6136 7.16211 24.4531C7.16274 24.4532 7.16343 24.453 7.16406 24.4531C7.03645 24.6499 6.98202 24.8852 7.01029 25.118C7.03855 25.3508 7.1477 25.5663 7.31868 25.7268C7.48966 25.8873 7.7116 25.9827 7.94573 25.9962C8.17986 26.0097 8.41129 25.9406 8.59961 25.8008C8.59961 25.8008 13 22.4444 13 16V6C13 4.895 12.105 4 11 4H5ZM19 4C17.895 4 17 4.895 17 6V14C17 15.105 17.895 16 19 16H23.041C23.0659 17.7862 22.8912 21.6136 21.1621 24.4531H21.1641C21.0365 24.6499 20.982 24.8852 21.0103 25.118C21.0385 25.3508 21.1477 25.5663 21.3187 25.7268C21.4897 25.8873 21.7116 25.9827 21.9457 25.9962C22.1799 26.0097 22.4113 25.9406 22.5996 25.8008C22.5996 25.8008 27 22.4444 27 16V6C27 4.895 26.105 4 25 4H19Z" />
</svg>
