<svg width="160" height="32" viewBox="0 0 160 32" xmlns="http://www.w3.org/2000/svg">
<path d="M16 24.1213L22.6254 28.12C23.6707 28.7506 24.96 27.8133 24.6827 26.6253L22.924 19.088L28.7787 14.016C29.7014 13.2173 29.208 11.7013 27.992 11.5986L20.2854 10.9453L17.2707 3.83197C16.7947 2.71063 15.2054 2.71063 14.7294 3.83197L11.7147 10.9453L4.00803 11.5986C2.79203 11.7013 2.29869 13.2173 3.22136 14.016L9.07603 19.088L7.31736 26.6253C7.04003 27.8133 8.32936 28.7506 9.37469 28.12L16 24.1213Z" />
<path d="M48 24.1213L54.6254 28.12C55.6707 28.7506 56.96 27.8133 56.6827 26.6253L54.924 19.088L60.7787 14.016C61.7014 13.2173 61.208 11.7013 59.992 11.5986L52.2854 10.9453L49.2707 3.83197C48.7947 2.71063 47.2054 2.71063 46.7294 3.83197L43.7147 10.9453L36.008 11.5986C34.792 11.7013 34.2987 13.2173 35.2214 14.016L41.076 19.088L39.3174 26.6253C39.04 27.8133 40.3294 28.7506 41.3747 28.12L48 24.1213Z" />
<path d="M80 24.1213L86.6254 28.12C87.6707 28.7506 88.96 27.8133 88.6827 26.6253L86.924 19.088L92.7787 14.016C93.7014 13.2173 93.208 11.7013 91.992 11.5986L84.2854 10.9453L81.2707 3.83197C80.7947 2.71063 79.2054 2.71063 78.7294 3.83197L75.7147 10.9453L68.008 11.5986C66.792 11.7013 66.2987 13.2173 67.2214 14.016L73.076 19.088L71.3174 26.6253C71.04 27.8133 72.3294 28.7506 73.3747 28.12L80 24.1213Z" />
<path d="M112 24.1213L118.625 28.12C119.671 28.7506 120.96 27.8133 120.683 26.6253L118.924 19.088L124.779 14.016C125.701 13.2173 125.208 11.7013 123.992 11.5986L116.285 10.9453L113.271 3.83197C112.795 2.71063 111.205 2.71063 110.729 3.83197L107.715 10.9453L100.008 11.5986C98.792 11.7013 98.2987 13.2173 99.2214 14.016L105.076 19.088L103.317 26.6253C103.04 27.8133 104.329 28.7506 105.375 28.12L112 24.1213Z" />
<path d="M144 24.1213L150.625 28.12C151.671 28.7506 152.96 27.8133 152.683 26.6253L150.924 19.088L156.779 14.016C157.701 13.2173 157.208 11.7013 155.992 11.5986L148.285 10.9453L145.271 3.83197C144.795 2.71063 143.205 2.71063 142.729 3.83197L139.715 10.9453L132.008 11.5986C130.792 11.7013 130.299 13.2173 131.221 14.016L137.076 19.088L135.317 26.6253C135.04 27.8133 136.329 28.7506 137.375 28.12L144 24.1213Z" />
</svg>
