<svg viewBox="0 0 25 26" xmlns="http://www.w3.org/2000/svg">
<path d="M9.16634 4.06335C7.29134 4.06335 5.77903 4.79648 4.79297 5.9058C3.80691 7.01512 3.33301 8.4615 3.33301 9.89669C3.33301 12.0461 3.71713 13.4148 4.13053 14.4149C4.54394 15.415 4.90408 15.9773 5.00781 16.6838V16.6854C5.15337 17.6751 5.34209 18.9642 5.75977 20.092C5.9686 20.6559 6.2319 21.1884 6.6403 21.6268C7.04869 22.0653 7.65665 22.3967 8.33301 22.3967C9.38292 22.3967 10.2339 21.8246 10.7126 21.119C11.1912 20.4134 11.4134 19.6047 11.6061 18.8534C11.7988 18.1021 11.9615 17.3957 12.1465 16.98C12.239 16.7722 12.3326 16.6497 12.3825 16.6057C12.4324 16.5617 12.4172 16.5634 12.4997 16.5634C12.5821 16.5634 12.567 16.5617 12.6169 16.6057C12.6667 16.6497 12.7604 16.7722 12.8529 16.98C13.0378 17.3957 13.2005 18.1021 13.3932 18.8534C13.5859 19.6047 13.8081 20.4134 14.2868 21.119C14.7654 21.8246 15.6164 22.3967 16.6663 22.3967C17.3427 22.3967 17.9507 22.0653 18.3591 21.6268C18.7674 21.1884 19.0307 20.6559 19.2396 20.092C19.6573 18.9642 19.846 17.6751 19.9915 16.6854V16.6838C20.0953 15.9773 20.4554 15.415 20.8688 14.4149C21.2822 13.4148 21.6663 12.0461 21.6663 9.89669C21.6663 8.4615 21.1924 7.01512 20.2064 5.9058C19.2203 4.79648 17.708 4.06335 15.833 4.06335C14.4904 4.06335 13.5472 4.28922 12.9196 4.54024C12.7042 4.62641 12.5296 4.72078 12.3776 4.81205C11.5327 4.38448 10.4702 4.06335 9.16634 4.06335ZM9.16634 5.73002C12.3205 5.73002 13.4453 7.81498 13.4453 7.81498C13.5002 7.90971 13.5733 7.99268 13.6602 8.05917C13.7472 8.12566 13.8465 8.17437 13.9523 8.2025C14.0581 8.23064 14.1684 8.23765 14.2769 8.22314C14.3855 8.20863 14.4901 8.17288 14.5848 8.11794C14.6795 8.063 14.7624 7.98994 14.8289 7.90293C14.8954 7.81592 14.944 7.71667 14.9721 7.61085C15.0002 7.50503 15.0072 7.39471 14.9927 7.28619C14.9781 7.17767 14.9423 7.07308 14.8874 6.97839C14.8874 6.97839 14.5856 6.50531 13.9873 5.94324C14.4162 5.82799 15.0103 5.73002 15.833 5.73002C17.2913 5.73002 18.279 6.24689 18.9596 7.01257C19.6402 7.77826 19.9997 8.83187 19.9997 9.89669C19.9997 11.8565 19.683 12.9224 19.3291 13.7785C18.9752 14.6347 18.5016 15.3503 18.3411 16.4429C18.1967 17.4247 18.0026 18.6337 17.6771 19.5126C17.5143 19.9522 17.3162 20.2998 17.1383 20.4908C16.9605 20.6817 16.8583 20.73 16.6663 20.73C16.1258 20.73 15.9303 20.5729 15.667 20.1848C15.4037 19.7966 15.1892 19.1471 15.0078 18.44C14.8264 17.7329 14.6781 16.981 14.3763 16.3029C14.2254 15.9639 14.0322 15.6307 13.7204 15.3557C13.4481 15.1155 13.0685 14.9524 12.6722 14.913C12.6154 14.9016 12.5576 14.8961 12.4997 14.8967C12.4412 14.896 12.3828 14.9014 12.3255 14.913C11.9298 14.9527 11.5509 15.1158 11.279 15.3557C10.9672 15.6307 10.7739 15.9639 10.623 16.3029C10.3213 16.981 10.1729 17.7329 9.99154 18.44C9.81017 19.1471 9.59565 19.7966 9.33236 20.1848C9.06906 20.5729 8.87351 20.73 8.33301 20.73C8.14103 20.73 8.03886 20.6817 7.861 20.4908C7.68315 20.2998 7.4851 19.9522 7.32227 19.5126C6.99677 18.6337 6.80262 17.4247 6.6582 16.4429V16.4413C6.49752 15.3497 6.02395 14.6342 5.67025 13.7785C5.31636 12.9224 4.99967 11.8565 4.99967 9.89669C4.99967 8.83187 5.35911 7.77826 6.03971 7.01257C6.72032 6.24689 7.70801 5.73002 9.16634 5.73002Z"/>
</svg>
