<svg viewBox="0 0 30 30" xmlns="http://www.w3.org/2000/svg">
<path d="M0.986421 15.0157C0.988783 15.1663 1.02514 15.3144 1.09278 15.449C1.16042 15.5836 1.25759 15.7012 1.37705 15.793C1.37899 15.7943 1.38095 15.7956 1.38291 15.7969L6.29306 20.7071C6.38521 20.803 6.49558 20.8797 6.6177 20.9325C6.73983 20.9852 6.87127 21.0131 7.00431 21.0145C7.13735 21.0158 7.26932 20.9906 7.3925 20.9403C7.51567 20.89 7.62758 20.8157 7.72166 20.7216C7.81573 20.6275 7.8901 20.5156 7.94039 20.3924C7.99067 20.2693 8.01588 20.1373 8.01453 20.0043C8.01317 19.8712 7.98529 19.7398 7.9325 19.6177C7.87972 19.4955 7.8031 19.3852 7.70712 19.293L4.41416 16H28.0001C28.1326 16.0019 28.2642 15.9774 28.3871 15.928C28.5101 15.8786 28.622 15.8052 28.7164 15.7122C28.8108 15.6192 28.8857 15.5083 28.9368 15.386C28.988 15.2638 29.0143 15.1326 29.0143 15C29.0143 14.8675 28.988 14.7363 28.9368 14.6141C28.8857 14.4918 28.8108 14.3809 28.7164 14.2879C28.622 14.1948 28.5101 14.1215 28.3871 14.0721C28.2642 14.0226 28.1326 13.9982 28.0001 14L4.41416 14L7.70712 10.7071C7.8031 10.6149 7.87972 10.5046 7.93251 10.3824C7.98529 10.2603 8.01318 10.1289 8.01453 9.99583C8.01588 9.86279 7.99068 9.73081 7.94039 9.60764C7.8901 9.48446 7.81574 9.37255 7.72166 9.27847C7.62758 9.1844 7.51568 9.11003 7.3925 9.05974C7.26932 9.00945 7.13735 8.98425 7.00431 8.9856C6.87127 8.98696 6.73983 9.01484 6.6177 9.06763C6.49558 9.12041 6.38521 9.19704 6.29306 9.29301L1.37705 14.209C1.25368 14.3038 1.15413 14.4261 1.08632 14.5661C1.0185 14.7062 0.984299 14.8601 0.986421 15.0157V15.0157Z" fill-opacity="0.8"/>
</svg>
