<svg viewBox="0 0 31 30" xmlns="http://www.w3.org/2000/svg">
  <g clip-path="url(#clip0_399_2243)">
    <path
      d="M14.1561 7C13.0951 7 12.078 7.42088 11.328 8.17188L9.08583 10.4141C8.71083 10.7881 8.4999 11.2981 8.4999 11.8281V13C8.4999 13.1782 8.53045 13.3473 8.57411 13.5117L4.79286 17.293C4.71681 17.3689 4.6535 17.4566 4.60536 17.5527L3.80068 19.1641C3.44547 19.1853 3.10237 19.301 2.80676 19.4991C2.51116 19.6972 2.27375 19.9706 2.11904 20.291L0.710834 23.1055C0.59331 23.3404 0.523218 23.5962 0.504562 23.8583C0.485906 24.1203 0.519051 24.3834 0.602104 24.6327C0.685156 24.8819 0.81649 25.1123 0.988605 25.3108C1.16072 25.5093 1.37024 25.6719 1.60521 25.7894C1.84018 25.9069 2.09599 25.9769 2.35803 25.9955C2.62008 26.0141 2.88322 25.9809 3.13243 25.8978C3.38165 25.8147 3.61205 25.6834 3.81049 25.5112C4.00893 25.3391 4.17151 25.1295 4.28896 24.8945L5.69716 22.0801C5.8604 21.7639 5.93633 21.4098 5.9171 21.0545C5.89788 20.6991 5.7842 20.3553 5.58779 20.0586L6.32216 18.5918L9.98818 14.9258C10.1526 14.9695 10.3217 15 10.4999 15H12.6718C13.2018 15 13.7108 14.7891 14.0858 14.4141L14.914 13.5859C15.289 13.2109 15.798 13 16.328 13H25.4999C26.8049 13 27.9093 12.1637 28.3222 11H29.4999C29.6324 11.0019 29.764 10.9774 29.8869 10.928C30.0099 10.8786 30.1218 10.8052 30.2162 10.7122C30.3106 10.6191 30.3855 10.5082 30.4367 10.386C30.4878 10.2637 30.5141 10.1325 30.5141 10C30.5141 9.86747 30.4878 9.73627 30.4367 9.61401C30.3855 9.49176 30.3106 9.38088 30.2162 9.28784C30.1218 9.1948 30.0099 9.12143 29.8869 9.07202C29.764 9.02261 29.6324 8.99813 29.4999 9H28.3046C27.8577 7.81841 26.6572 7 25.33 7H14.1561Z" />
  </g>
  <defs>
    <clipPath id="clip0_399_2243">
      <rect width="30" height="30" fill="white" transform="translate(0.5)" />
    </clipPath>
  </defs>
</svg>