<svg viewBox="0 0 30 30" xmlns="http://www.w3.org/2000/svg">
<path d="M11 4C8.75 4 6.93523 4.87976 5.75195 6.21094C4.56868 7.54212 4 9.27778 4 11C4 13.5793 4.46095 15.2217 4.95703 16.4219C5.45312 17.622 5.88528 18.2967 6.00977 19.1445C6.00976 19.1452 6.00976 19.1458 6.00977 19.1465C6.18444 20.3341 6.4109 21.8811 6.91211 23.2344C7.16271 23.911 7.47868 24.55 7.96875 25.0762C8.45882 25.6023 9.18837 26 10 26C11.2599 26 12.2811 25.3135 12.8555 24.4668C13.4299 23.6201 13.6965 22.6496 13.9277 21.748C14.159 20.8465 14.3542 19.9988 14.5762 19.5C14.6872 19.2506 14.7995 19.1036 14.8594 19.0508C14.9192 18.998 14.9011 19 15 19C15.099 19 15.0808 18.998 15.1406 19.0508C15.2005 19.1036 15.3128 19.2506 15.4238 19.5C15.6458 19.9988 15.841 20.8465 16.0723 21.748C16.3035 22.6496 16.5701 23.6201 17.1445 24.4668C17.7189 25.3135 18.7401 26 20 26C20.8116 26 21.5412 25.6023 22.0312 25.0762C22.5213 24.55 22.8373 23.911 23.0879 23.2344C23.5891 21.8811 23.8156 20.3341 23.9902 19.1465C23.9902 19.1458 23.9902 19.1452 23.9902 19.1445C24.1147 18.2967 24.5469 17.622 25.043 16.4219C25.5391 15.2218 26 13.5793 26 11C26 9.27778 25.4313 7.54212 24.248 6.21094C23.0648 4.87976 21.25 4 19 4C17.3889 4 16.257 4.27104 15.5039 4.57227C15.1711 4.70537 15.1722 4.75759 14.9688 4.89062C14.3554 4.56617 13.1171 4 11 4ZM11 6C13.2543 6 14.4395 6.82812 14.4395 6.82812C14.6319 6.95834 14.8637 7.01748 15.095 6.99538C15.3263 6.97328 15.5427 6.87133 15.707 6.70703C15.707 6.70703 15.7492 6.62651 16.2461 6.42773C16.743 6.22896 17.6111 6 19 6C20.75 6 21.9352 6.62024 22.752 7.53906C23.5687 8.45788 24 9.72222 24 11C24 12.2779 23.8835 13.2238 23.7129 14H19.7969C19.3405 12.2936 17.8436 11 16 11H14C12.1564 11 10.6595 12.2936 10.2031 14H6.28711C6.1165 13.2238 6 12.2779 6 11C6 9.72222 6.43132 8.45788 7.24805 7.53906C8.06477 6.62024 9.25 6 11 6ZM14 13H16C17.1167 13 18 13.8833 18 15C18 15.2652 18.1054 15.5195 18.2929 15.7071C18.4805 15.8946 18.7348 16 19 16H23.0391C22.6399 16.8826 22.1802 17.6945 22.0098 18.8555C21.8365 20.0336 21.6035 21.4844 21.2129 22.5391C21.0175 23.0667 20.7798 23.4837 20.5664 23.7129C20.353 23.942 20.2304 24 20 24C19.3514 24 19.1167 23.8115 18.8008 23.3457C18.4848 22.8799 18.2274 22.1004 18.0098 21.252C17.7921 20.4035 17.6141 19.5012 17.252 18.6875C17.0709 18.2807 16.839 17.8808 16.4648 17.5508C16.2648 17.3743 15.9528 17.3528 15.6816 17.2559C15.4946 17.088 15.2513 16.9966 15 17C14.7494 16.9971 14.5068 17.0884 14.3203 17.2559C14.0484 17.3528 13.7357 17.3739 13.5352 17.5508C13.161 17.8808 12.9291 18.2807 12.748 18.6875C12.3859 19.5012 12.2079 20.4035 11.9902 21.252C11.7726 22.1004 11.5152 22.8799 11.1992 23.3457C10.8833 23.8115 10.6486 24 10 24C9.76963 24 9.64702 23.942 9.43359 23.7129C9.22017 23.4837 8.98251 23.0667 8.78711 22.5391C8.39652 21.4844 8.16354 20.0336 7.99023 18.8555V18.8535C7.81952 17.6937 7.35989 16.8822 6.96094 16H11C11.2652 16 11.5195 15.8946 11.7071 15.7071C11.8946 15.5195 12 15.2652 12 15C12 13.8833 12.8833 13 14 13Z" />
</svg>
