<svg viewBox="0 0 30 30" xmlns="http://www.w3.org/2000/svg">
<path d="M11 4C8.75 4 6.93523 4.87976 5.75195 6.21094C4.56868 7.54212 4 9.27778 4 11C4 12.8553 4.23383 14.2161 4.55469 15.2871C4.61642 15.493 4.74284 15.6735 4.91522 15.8019C5.0876 15.9303 5.29677 15.9998 5.51172 16H11.084L11.3066 18.6836L18.7754 17.6875L18.916 16H24.4863C24.7016 16.0002 24.9112 15.931 25.084 15.8025C25.2568 15.6741 25.3835 15.4933 25.4453 15.2871C25.7675 14.2154 26 12.8553 26 11C26 9.27778 25.4313 7.54212 24.248 6.21094C23.0648 4.87976 21.25 4 19 4C17.3889 4 16.257 4.27104 15.5039 4.57227C15.1019 4.73308 15.0664 4.81045 14.8574 4.95703C13.8317 4.43524 12.6068 4 11 4ZM11 6C12.6838 6 13.8607 6.51528 14.6895 7.08008C14.8277 7.17706 14.9882 7.23746 15.1561 7.25565C15.324 7.27384 15.4938 7.24922 15.6496 7.18409C15.8054 7.11896 15.9421 7.01545 16.0471 6.88319C16.1521 6.75093 16.2219 6.59425 16.25 6.42773C16.7473 6.22915 17.613 6 19 6C20.75 6 21.9352 6.62024 22.752 7.53906C23.5687 8.45788 24 9.72222 24 11C24 12.3661 23.8107 13.1981 23.6191 14H6.38086C6.18965 13.1976 6 12.3661 6 11C6 9.72222 6.43132 8.45788 7.24805 7.53906C8.06477 6.62024 9.25 6 11 6ZM18.6055 19.7285L11.4727 20.6797L11.6367 22.6406L18.4395 21.7324L18.6055 19.7285ZM18.2695 23.7734L11.8633 24.627C12.2523 26.006 13.517 27 15 27C16.696 27 18.107 25.6998 18.248 24.0098L18.2695 23.7734Z" />
</svg>
