<svg viewBox="0 0 30 30" xmlns="http://www.w3.org/2000/svg">
<path d="M11 4C8.75 4 6.93523 4.87976 5.75195 6.21094C4.56868 7.54212 4 9.27778 4 11C4 13.5793 4.46095 15.2217 4.95703 16.4219C5.45312 17.622 5.88528 18.2967 6.00977 19.1445C6.00976 19.1452 6.00976 19.1458 6.00977 19.1465C6.18444 20.3341 6.4109 21.8811 6.91211 23.2344C7.16271 23.911 7.47868 24.55 7.96875 25.0762C8.45882 25.6023 9.18837 26 10 26C11.2599 26 12.2811 25.3135 12.8555 24.4668C13.4299 23.6201 13.6965 22.6496 13.9277 21.748C14.159 20.8465 14.3542 19.9988 14.5762 19.5C14.6872 19.2506 14.7995 19.1036 14.8594 19.0508C14.9192 18.998 14.9011 19 15 19C15.099 19 15.0808 18.998 15.1406 19.0508C15.2005 19.1036 15.3128 19.2506 15.4238 19.5C15.6458 19.9988 15.841 20.8465 16.0723 21.748C16.3035 22.6496 16.5701 23.6201 17.1445 24.4668C17.7189 25.3135 18.7401 26 20 26C20.8116 26 21.5412 25.6023 22.0312 25.0762C22.5213 24.55 22.8373 23.911 23.0879 23.2344C23.5891 21.8811 23.8156 20.3341 23.9902 19.1465C23.9902 19.1458 23.9902 19.1452 23.9902 19.1445C24.1147 18.2967 24.5469 17.622 25.043 16.4219C25.5391 15.2218 26 13.5793 26 11C26 9.27778 25.4313 7.54212 24.248 6.21094C23.0648 4.87976 21.25 4 19 4C17.3889 4 16.257 4.27104 15.5039 4.57227C15.159 4.71024 15.1546 4.76627 14.9492 4.90234C14.3659 4.63111 12.9031 4 11 4ZM11 6C12.6667 6 14.5527 6.89453 14.5527 6.89453C14.7405 6.98835 14.953 7.02073 15.1601 6.98708C15.3673 6.95343 15.5586 6.85545 15.707 6.70703C15.707 6.70703 15.7492 6.62651 16.2461 6.42773C16.743 6.22896 17.6111 6 19 6C20.75 6 21.9352 6.62024 22.752 7.53906C23.5687 8.45788 24 9.72222 24 11C24 13.3517 23.62 14.6308 23.1953 15.6582C22.7706 16.6856 22.2023 17.5443 22.0098 18.8555C21.8365 20.0336 21.6035 21.4844 21.2129 22.5391C21.0175 23.0667 20.7798 23.4837 20.5664 23.7129C20.353 23.942 20.2304 24 20 24C19.3514 24 19.1167 23.8115 18.8008 23.3457C18.4848 22.8799 18.2274 22.1004 18.0098 21.252C17.7921 20.4035 17.6141 19.5012 17.252 18.6875C17.0709 18.2807 16.839 17.8808 16.4648 17.5508C16.0907 17.2208 15.5491 17 15 17C14.4509 17 13.9093 17.2208 13.5352 17.5508C13.161 17.8808 12.9291 18.2807 12.748 18.6875C12.3859 19.5012 12.2079 20.4035 11.9902 21.252C11.7726 22.1004 11.5152 22.8799 11.1992 23.3457C10.8833 23.8115 10.6486 24 10 24C9.76963 24 9.64702 23.942 9.43359 23.7129C9.22017 23.4837 8.98251 23.0667 8.78711 22.5391C8.39652 21.4844 8.16354 20.0336 7.99023 18.8555V18.8535C7.79742 17.5436 7.22912 16.685 6.80469 15.6582C6.38002 14.6308 6 13.3517 6 11C6 9.72222 6.43132 8.45788 7.24805 7.53906C7.38426 7.38582 7.54745 7.25428 7.70508 7.11914L9.58594 9L8.29297 10.293C8.08097 10.505 7.97686 10.8016 8.00586 11.0996C8.03486 11.3966 8.19531 11.666 8.44531 11.832L11.4453 13.832C11.6163 13.946 11.808 14 11.998 14C12.321 14 12.639 13.8437 12.832 13.5547C13.138 13.0947 13.0137 12.474 12.5547 12.168L10.5703 10.8457L11.707 9.70703C12.098 9.31603 12.063 8.77197 11.707 8.29297L10.2168 6.05078C10.4658 6.02111 10.7236 6 11 6Z" />
</svg>
