<svg width="62" height="42" viewBox="0 0 62 42" fill="none" xmlns="http://www.w3.org/2000/svg">
<path fill-rule="evenodd" clip-rule="evenodd" d="M30.8737 0.77332L30.9674 0.764404L31.0609 0.773762L44.8233 2.15L44.9708 2.16475L45.107 2.22311L54.7406 6.35183L54.9843 6.45627L55.1403 6.67068L60.6452 14.24L61.1613 14.9495L60.5029 15.5295L47.7306 26.7813L47.6535 26.9355L47.591 26.9043L31.6019 40.9899L30.9725 41.5444L30.3367 40.9973L0.747574 15.5369L0.074707 14.9579L0.596813 14.24L6.10177 6.67068L6.25771 6.45627L6.50139 6.35183L16.1351 2.22311L16.2734 2.16383L16.4232 2.14956L30.8737 0.77332ZM50.0252 22.1922L54.2137 18.5023L51.5771 19.0882L50.0252 22.1922ZM57.4217 15.6761L57.9391 15.2204L56.4662 14.4021L57.4217 15.6761ZM56.989 12.4884L53.738 8.01835L51.4033 7.01777L53.6701 10.6446L56.989 12.4884ZM48.0587 5.58436L44.4842 4.05243L30.9628 2.70029L16.7557 4.05335L13.5718 5.41788L19.0468 8.45953L18.5789 9.30167L18.7808 10.2436L10.168 12.0892L11.6253 16.947L18.8965 13.9174L19.6376 15.6959L13.6803 18.1781L20.9673 20.7806L20.3193 22.5951L15.4569 20.8585L27.0155 30.9723L29.3507 22.7994L30.9651 23.2607L32.5795 22.7994L34.9146 30.9723L46.6826 20.6754L40.9034 22.6018L40.2941 20.7739L48.175 18.1469L42.2926 15.6959L43.0336 13.9174L50.3048 16.947L51.7622 12.0892L43.1494 10.2436L43.3512 9.30167L42.8834 8.45953L48.0587 5.58436ZM10.7786 6.61497L7.50406 8.01835L3.78655 13.1299L8.26007 10.6446L10.7786 6.61497ZM3.59167 15.4423L4.25546 16.0135L5.46395 14.4021L3.59167 15.4423ZM6.94992 18.3319L12.259 22.9002L10.353 19.0882L6.94992 18.3319ZM15.9666 26.0905L28.8875 37.2085L26.7609 33.3097L14.0623 22.1984L16 26.0738L15.9666 26.0905ZM33.1009 37.1016L35.1692 33.3097L47.8679 22.1984L46.1752 25.5838L33.1009 37.1016ZM33.3709 32.5829L30.9651 36.9937L28.5592 32.5829L30.9651 24.1624L33.3709 32.5829ZM15.8676 8.89743L10.968 9.94735L12.7178 7.14756L15.8676 8.89743ZM9.61476 16.9504L6.48311 16.2545L8.57088 13.4708L9.61476 16.9504ZM50.9622 9.94735L46.0626 8.89743L49.2123 7.14756L50.9622 9.94735ZM52.3154 16.9504L53.3593 13.4708L55.447 16.2545L52.3154 16.9504Z" fill="#39A05E" fill-opacity="0.24"/>
<path d="M39.5439 24.5096C38.7898 26.0387 37.2054 29.393 35.2562 28.957C34.6051 28.8112 34.1236 28.2729 34.0174 27.6248C33.8555 26.6348 33.9193 25.6108 33.7839 24.6146C33.5692 22.8782 32.2966 21.8528 30.7783 21.9286C29.6156 21.9439 28.3226 22.6836 28.0745 23.8354C27.8561 24.9909 27.8748 26.2572 27.9063 27.4512C27.8981 28.5533 27.0509 29.5231 25.8759 29.1745C24.5665 28.656 23.7093 27.4974 22.8835 26.4272C21.2298 24.1225 20.0822 21.4891 19.1858 18.8215C18.3583 15.8781 17.336 12.2274 18.2507 9.25753C19.318 6.2343 23.0595 5.64625 25.7898 6.62768C27.2762 7.0251 28.6349 7.93655 30.1518 8.16666C30.9931 8.23529 31.8589 7.72529 32.6276 7.38753C33.8323 6.75597 35.0606 6.11947 36.4198 5.9266C38.6817 5.60902 41.2018 6.25224 42.1483 8.50711C42.4597 9.35487 42.5486 10.034 42.6298 11.1127C42.8929 15.722 41.5889 20.3296 39.5435 24.5101L39.5439 24.5096Z" fill="#E3F2E8" stroke="#39A05E" stroke-width="2.45966"/>
</svg>
