<svg width="138" height="36" viewBox="0 0 138 36" fill="none" xmlns="http://www.w3.org/2000/svg">
<path d="M3.48198 6.72806H4.47139L3.99191 5.2059H3.96147L3.48198 6.72806ZM1.16068 9.04937L3.17755 3.72178H4.77583L6.7927 9.04937H5.23248L4.85193 7.90774H3.10144L2.7209 9.04937H1.16068ZM8.12816 9.04937V3.72178H10.4875C11.071 3.72178 11.5277 3.85624 11.8575 4.12516C12.1873 4.39407 12.3522 4.72895 12.3522 5.12979C12.3522 5.49003 12.2177 5.78432 11.9488 6.01264C11.8473 6.0989 11.7154 6.17247 11.553 6.23336C11.7509 6.30439 11.9285 6.39826 12.0858 6.51496C12.441 6.78895 12.6186 7.13905 12.6186 7.56526C12.6186 7.98639 12.446 8.33902 12.101 8.62316C11.756 8.9073 11.2816 9.04937 10.6778 9.04937H8.12816ZM9.57422 7.90774H10.5636C10.7311 7.90774 10.8681 7.857 10.9746 7.75553C11.0812 7.65405 11.1344 7.5272 11.1344 7.37498C11.1344 7.22277 11.0812 7.09592 10.9746 6.99444C10.8681 6.89297 10.7311 6.84223 10.5636 6.84223H9.57422V7.90774ZM9.57422 5.77671H10.3734C10.5256 5.77671 10.6448 5.73612 10.7311 5.65494C10.8224 5.56868 10.8681 5.45705 10.8681 5.32006C10.8681 5.18306 10.8224 5.07397 10.7311 4.99279C10.6448 4.90654 10.5256 4.86341 10.3734 4.86341H9.57422V5.77671ZM15.1343 9.04937V5.01562H13.6502V3.72178H18.0645V5.01562H16.5804V9.04937H15.1343ZM21.0448 5.33528C20.7606 5.61942 20.6186 5.96952 20.6186 6.38558C20.6186 6.80164 20.7606 7.15427 21.0448 7.44348C21.334 7.72762 21.6866 7.86969 22.1027 7.86969C22.5187 7.86969 22.8688 7.72762 23.153 7.44348C23.4422 7.15427 23.5868 6.80164 23.5868 6.38558C23.5868 5.96952 23.4422 5.61942 23.153 5.33528C22.8688 5.04607 22.5187 4.90146 22.1027 4.90146C21.6866 4.90146 21.334 5.04607 21.0448 5.33528ZM19.9793 8.38723C19.416 7.83925 19.1344 7.17203 19.1344 6.38558C19.1344 5.59912 19.416 4.93444 19.9793 4.39154C20.5475 3.84356 21.2553 3.56956 22.1027 3.56956C22.95 3.56956 23.6553 3.84356 24.2185 4.39154C24.7868 4.93444 25.0709 5.59912 25.0709 6.38558C25.0709 7.17203 24.7868 7.83925 24.2185 8.38723C23.6553 8.93013 22.95 9.20159 22.1027 9.20159C21.2553 9.20159 20.5475 8.93013 19.9793 8.38723ZM26.748 9.04937V3.72178H29.1454C29.7289 3.72178 30.2033 3.89937 30.5686 4.25454C30.939 4.60464 31.1242 5.0486 31.1242 5.58644C31.1242 6.12427 30.939 6.57077 30.5686 6.92595C30.2033 7.27604 29.7289 7.45109 29.1454 7.45109H28.194V9.04937H26.748ZM28.194 6.15725H29.0693C29.2367 6.15725 29.3788 6.10144 29.4955 5.98981C29.6172 5.87311 29.6781 5.73865 29.6781 5.58644C29.6781 5.43422 29.6172 5.3023 29.4955 5.19067C29.3788 5.07397 29.2367 5.01562 29.0693 5.01562H28.194V6.15725ZM36.9108 7.18471L37.7861 8.17412C37.6135 8.37201 37.4157 8.54452 37.1924 8.69166C36.6952 9.03161 36.1193 9.20159 35.4648 9.20159C34.6174 9.20159 33.9096 8.93013 33.3413 8.38723C32.7781 7.83925 32.4965 7.17203 32.4965 6.38558C32.4965 5.59912 32.7781 4.93444 33.3413 4.39154C33.9096 3.84356 34.6174 3.56956 35.4648 3.56956C36.1041 3.56956 36.6749 3.74208 37.1772 4.0871C37.4004 4.24439 37.5907 4.41437 37.748 4.59703L36.8728 5.58644C36.7561 5.45959 36.6267 5.34543 36.4846 5.24395C36.1548 5.01562 35.8149 4.90146 35.4648 4.90146C35.0487 4.90146 34.6961 5.04607 34.4068 5.33528C34.1227 5.61942 33.9806 5.96952 33.9806 6.38558C33.9806 6.80164 34.1227 7.15427 34.4068 7.44348C34.6961 7.72762 35.0487 7.86969 35.4648 7.86969C35.8098 7.86969 36.1548 7.75553 36.4998 7.5272C36.652 7.42572 36.789 7.31156 36.9108 7.18471ZM39.3073 9.04937V3.72178H40.7534V5.77671L42.5039 3.72178H44.1783L42.2756 5.92893L44.3305 9.04937H42.6561L41.3242 7.0325L40.7534 7.67942V9.04937H39.3073ZM47.2205 6.72806H48.2099L47.7305 5.2059H47.7L47.2205 6.72806ZM44.8992 9.04937L46.9161 3.72178H48.5144L50.5312 9.04937H48.971L48.5905 7.90774H46.84L46.4594 9.04937H44.8992ZM51.4481 9.04937L52.5517 7.07055C52.3792 6.98937 52.227 6.87774 52.095 6.73567C51.7906 6.43124 51.6384 6.03548 51.6384 5.54838C51.6384 5.03085 51.821 4.59703 52.1864 4.24693C52.5517 3.89683 53.0159 3.72178 53.5791 3.72178H56.0907V9.04937H54.6447V7.37498H53.8455L52.9703 9.04937H51.4481ZM53.6553 6.08114H54.6447V5.01562H53.6553C53.4878 5.01562 53.3508 5.06636 53.2443 5.16784C53.1377 5.26932 53.0844 5.39617 53.0844 5.54838C53.0844 5.7006 53.1377 5.82745 53.2443 5.92893C53.3508 6.0304 53.4878 6.08114 53.6553 6.08114ZM64.6116 7.18471L65.4868 8.17412C65.3143 8.37201 65.1164 8.54452 64.8932 8.69166C64.396 9.03161 63.8201 9.20159 63.1655 9.20159C62.3182 9.20159 61.6104 8.93013 61.0421 8.38723C60.4789 7.83925 60.1973 7.17203 60.1973 6.38558C60.1973 5.59912 60.4789 4.93444 61.0421 4.39154C61.6104 3.84356 62.3182 3.56956 63.1655 3.56956C63.8048 3.56956 64.3757 3.74208 64.878 4.0871C65.1012 4.24439 65.2915 4.41437 65.4488 4.59703L64.5735 5.58644C64.4568 5.45959 64.3275 5.34543 64.1854 5.24395C63.8556 5.01562 63.5156 4.90146 63.1655 4.90146C62.7495 4.90146 62.3968 5.04607 62.1076 5.33528C61.8235 5.61942 61.6814 5.96952 61.6814 6.38558C61.6814 6.80164 61.8235 7.15427 62.1076 7.44348C62.3968 7.72762 62.7495 7.86969 63.1655 7.86969C63.5106 7.86969 63.8556 7.75553 64.2006 7.5272C64.3528 7.42572 64.4898 7.31156 64.6116 7.18471ZM68.0356 9.04937V5.01562H66.5515V3.72178H70.9658V5.01562H69.4816V9.04937H68.0356ZM73.946 5.33528C73.6619 5.61942 73.5198 5.96952 73.5198 6.38558C73.5198 6.80164 73.6619 7.15427 73.946 7.44348C74.2353 7.72762 74.5879 7.86969 75.004 7.86969C75.42 7.86969 75.7701 7.72762 76.0542 7.44348C76.3435 7.15427 76.4881 6.80164 76.4881 6.38558C76.4881 5.96952 76.3435 5.61942 76.0542 5.33528C75.7701 5.04607 75.42 4.90146 75.004 4.90146C74.5879 4.90146 74.2353 5.04607 73.946 5.33528ZM72.8805 8.38723C72.3173 7.83925 72.0357 7.17203 72.0357 6.38558C72.0357 5.59912 72.3173 4.93444 72.8805 4.39154C73.4488 3.84356 74.1566 3.56956 75.004 3.56956C75.8513 3.56956 76.5566 3.84356 77.1198 4.39154C77.688 4.93444 77.9722 5.59912 77.9722 6.38558C77.9722 7.17203 77.688 7.83925 77.1198 8.38723C76.5566 8.93013 75.8513 9.20159 75.004 9.20159C74.1566 9.20159 73.4488 8.93013 72.8805 8.38723ZM79.6492 9.04937V3.72178H80.9431L82.5794 5.77671L84.2157 3.72178H85.5096V9.04937H84.0635V5.89087L82.5794 7.75553L81.0953 5.89087V9.04937H79.6492ZM89.1604 6.72806H90.1498L89.6703 5.2059H89.6399L89.1604 6.72806ZM86.8391 9.04937L88.856 3.72178H90.4543L92.4711 9.04937H90.9109L90.5304 7.90774H88.7799L88.3993 9.04937H86.8391ZM94.3807 9.04937V5.01562H92.8966V3.72178H97.3109V5.01562H95.8267V9.04937H94.3807ZM100.291 5.33528C100.007 5.61942 99.8649 5.96952 99.8649 6.38558C99.8649 6.80164 100.007 7.15427 100.291 7.44348C100.58 7.72762 100.933 7.86969 101.349 7.86969C101.765 7.86969 102.115 7.72762 102.399 7.44348C102.689 7.15427 102.833 6.80164 102.833 6.38558C102.833 5.96952 102.689 5.61942 102.399 5.33528C102.115 5.04607 101.765 4.90146 101.349 4.90146C100.933 4.90146 100.58 5.04607 100.291 5.33528ZM99.2256 8.38723C98.6624 7.83925 98.3808 7.17203 98.3808 6.38558C98.3808 5.59912 98.6624 4.93444 99.2256 4.39154C99.7939 3.84356 100.502 3.56956 101.349 3.56956C102.196 3.56956 102.902 3.84356 103.465 4.39154C104.033 4.93444 104.317 5.59912 104.317 6.38558C104.317 7.17203 104.033 7.83925 103.465 8.38723C102.902 8.93013 102.196 9.20159 101.349 9.20159C100.502 9.20159 99.7939 8.93013 99.2256 8.38723ZM105.275 9.04937V7.71747C105.326 7.73777 105.364 7.75045 105.389 7.75553C105.475 7.7809 105.551 7.79358 105.617 7.79358C105.739 7.79358 105.846 7.76314 105.937 7.70225C106.033 7.63629 106.122 7.52213 106.203 7.35976C106.285 7.19232 106.345 6.94624 106.386 6.62151C106.432 6.29171 106.455 5.8858 106.455 5.40378V3.72178H110.564V9.04937H109.118V5.09173H107.901V5.39617C107.901 5.98474 107.868 6.50228 107.802 6.94878C107.741 7.39021 107.657 7.75299 107.551 8.03713C107.444 8.32127 107.307 8.55213 107.14 8.72971C106.977 8.90223 106.805 9.024 106.622 9.09503C106.439 9.16607 106.231 9.20159 105.998 9.20159C105.836 9.20159 105.668 9.17622 105.496 9.12548C105.409 9.10011 105.336 9.07474 105.275 9.04937ZM114.151 5.33528C113.867 5.61942 113.725 5.96952 113.725 6.38558C113.725 6.80164 113.867 7.15427 114.151 7.44348C114.44 7.72762 114.793 7.86969 115.209 7.86969C115.625 7.86969 115.975 7.72762 116.259 7.44348C116.549 7.15427 116.693 6.80164 116.693 6.38558C116.693 5.96952 116.549 5.61942 116.259 5.33528C115.975 5.04607 115.625 4.90146 115.209 4.90146C114.793 4.90146 114.44 5.04607 114.151 5.33528ZM113.086 8.38723C112.522 7.83925 112.241 7.17203 112.241 6.38558C112.241 5.59912 112.522 4.93444 113.086 4.39154C113.654 3.84356 114.362 3.56956 115.209 3.56956C116.056 3.56956 116.762 3.84356 117.325 4.39154C117.893 4.93444 118.177 5.59912 118.177 6.38558C118.177 7.17203 117.893 7.83925 117.325 8.38723C116.762 8.93013 116.056 9.20159 115.209 9.20159C114.362 9.20159 113.654 8.93013 113.086 8.38723ZM119.854 9.04937V3.72178H123.584V5.09173H121.3V9.04937H119.854ZM125.105 9.04937V3.72178H126.551V6.65196L128.834 3.72178H130.09V9.04937H128.644V6.1192L126.36 9.04937H125.105ZM131.653 9.04937L132.757 7.07055C132.584 6.98937 132.432 6.87774 132.3 6.73567C131.996 6.43124 131.844 6.03548 131.844 5.54838C131.844 5.03085 132.026 4.59703 132.392 4.24693C132.757 3.89683 133.221 3.72178 133.784 3.72178H136.296V9.04937H134.85V7.37498H134.051L133.175 9.04937H131.653ZM133.86 6.08114H134.85V5.01562H133.86C133.693 5.01562 133.556 5.06636 133.449 5.16784C133.343 5.26932 133.29 5.39617 133.29 5.54838C133.29 5.7006 133.343 5.82745 133.449 5.92893C133.556 6.0304 133.693 6.08114 133.86 6.08114Z" fill="#39A05F"/>
<path d="M4.70842 27.7757V17.1206H0.903003V14.4568H11.3679V17.1206H7.56249V27.7757H4.70842ZM16.9779 27.7757V14.4568H26.872V17.1206H19.832V19.6892H25.3499V22.2579H19.832V25.112H27.0623V27.7757H16.9779ZM33.1517 27.7757V14.4568H38.7647C40.1727 14.4568 41.3143 14.8754 42.1896 15.7126C43.0775 16.5498 43.5215 17.6216 43.5215 18.9281C43.5215 20.2347 43.0775 21.3065 42.1896 22.1437C41.3143 22.9809 40.1727 23.3995 38.7647 23.3995H36.0058V27.7757H33.1517ZM36.0058 20.7357H38.6696C39.2404 20.7357 39.697 20.5708 40.0395 20.241C40.3947 19.8985 40.5723 19.4609 40.5723 18.9281C40.5723 18.3954 40.3947 17.9641 40.0395 17.6343C39.697 17.2918 39.2404 17.1206 38.6696 17.1206H36.0058V20.7357ZM49.6042 27.7757V14.4568H52.4583V19.6892H58.1664V14.4568H61.0205V27.7757H58.1664V22.353H52.4583V27.7757H49.6042ZM71.3003 18.091C70.4758 18.9155 70.0635 19.9239 70.0635 21.1163C70.0635 22.3086 70.4758 23.3234 71.3003 24.1606C72.1375 24.9851 73.1523 25.3974 74.3446 25.3974C75.537 25.3974 76.5454 24.9851 77.3699 24.1606C78.2071 23.3234 78.6257 22.3086 78.6257 21.1163C78.6257 19.9239 78.2071 18.9155 77.3699 18.091C76.5454 17.2538 75.537 16.8352 74.3446 16.8352C73.1523 16.8352 72.1375 17.2538 71.3003 18.091ZM69.1883 26.0253C67.8057 24.668 67.1143 23.0317 67.1143 21.1163C67.1143 19.2009 67.8057 17.5645 69.1883 16.2073C70.5836 14.85 72.3024 14.1714 74.3446 14.1714C76.3869 14.1714 78.0993 14.85 79.482 16.2073C80.8773 17.5645 81.5749 19.2009 81.5749 21.1163C81.5749 23.0317 80.8773 24.668 79.482 26.0253C78.0993 27.3825 76.3869 28.0612 74.3446 28.0612C72.3024 28.0612 70.5836 27.3825 69.1883 26.0253ZM87.6562 27.7757V14.4568H93.2692C94.563 14.4568 95.5968 14.7993 96.3706 15.4842C97.157 16.1565 97.5503 16.9874 97.5503 17.9768C97.5503 18.8394 97.2458 19.5624 96.637 20.1459C96.3452 20.4123 96.0471 20.6089 95.7427 20.7357C96.1867 20.8626 96.5989 21.0782 96.9795 21.3826C97.804 22.0803 98.2162 22.9429 98.2162 23.9703C98.2162 25.0358 97.7976 25.9365 96.9604 26.6722C96.1359 27.4079 95.0323 27.7757 93.6497 27.7757H87.6562ZM90.5102 25.3022H93.4594C94.0176 25.3022 94.4552 25.1563 94.7723 24.8646C95.1021 24.5729 95.267 24.1796 95.267 23.6849C95.267 23.1902 95.1021 22.797 94.7723 22.5052C94.4552 22.2135 94.0176 22.0676 93.4594 22.0676H90.5102V25.3022ZM90.5102 19.5941H93.0789C93.5482 19.5941 93.9161 19.4736 94.1825 19.2326C94.4615 18.9789 94.6011 18.6554 94.6011 18.2622C94.6011 17.869 94.4615 17.5519 94.1825 17.3108C93.9161 17.0571 93.5482 16.9303 93.0789 16.9303H90.5102V19.5941ZM116.015 27.7757V14.4568H118.869V27.7757H116.015ZM104.313 27.7757V14.4568H107.167V18.833H109.736C111.144 18.833 112.285 19.2516 113.161 20.0888C114.049 20.926 114.493 21.9978 114.493 23.3044C114.493 24.6109 114.049 25.6828 113.161 26.52C112.285 27.3571 111.144 27.7757 109.736 27.7757H104.313ZM107.167 25.112H109.641C110.211 25.112 110.668 24.947 111.011 24.6172C111.366 24.2748 111.543 23.8371 111.543 23.3044C111.543 22.7716 111.366 22.3403 111.011 22.0105C110.668 21.668 110.211 21.4968 109.641 21.4968H107.167V25.112ZM124.107 27.7757L128.674 20.8309L124.488 14.4568H127.817L130.538 18.833H130.614L133.335 14.4568H136.665L132.479 20.8309L137.046 27.7757H133.716L130.614 22.8287H130.538L127.437 27.7757H124.107Z" fill="black" fill-opacity="0.88"/>
</svg>
