<svg width="16" height="16" viewBox="0 0 16 16" fill="none" xmlns="http://www.w3.org/2000/svg">
  <path d="M3.83333 2C2.82267 2 2 2.82267 2 3.83333V12.1667C2 13.1773 2.82267 14 3.83333 14H12.1667C13.1773 14 14 13.1773 14 12.1667V5.31641L13 6.31641V12.1667C13 12.6263 12.6263 13 12.1667 13H3.83333C3.37367 13 3 12.6263 3 12.1667V3.83333C3 3.37367 3.37367 3 3.83333 3H12.1667C12.4007 3 12.6114 3.09791 12.763 3.25391L13.4701 2.54688C13.1374 2.20987 12.6763 2 12.1667 2H3.83333ZM13.8236 3.32878C13.6937 3.33256 13.5704 3.38673 13.4798 3.47982L7.16667 9.79297L5.85352 8.47982C5.80744 8.43183 5.75226 8.39352 5.69119 8.36713C5.63013 8.34074 5.56441 8.3268 5.4979 8.32612C5.43138 8.32544 5.36539 8.33805 5.3038 8.36319C5.24221 8.38834 5.18626 8.42552 5.13922 8.47256C5.09218 8.51959 5.055 8.57555 5.02986 8.63713C5.00471 8.69872 4.99211 8.76471 4.99279 8.83123C4.99346 8.89775 5.00741 8.96346 5.0338 9.02453C5.06019 9.08559 5.0985 9.14078 5.14648 9.18685L6.81315 10.8535C6.90692 10.9472 7.03408 10.9999 7.16667 10.9999C7.29925 10.9999 7.42641 10.9472 7.52018 10.8535L14.1868 4.18685C14.259 4.1166 14.3082 4.02621 14.3281 3.9275C14.3481 3.8288 14.3377 3.72639 14.2984 3.63367C14.2592 3.54094 14.1929 3.46223 14.1081 3.40783C14.0234 3.35343 13.9242 3.32588 13.8236 3.32878Z" fill="#0066FF"/>
</svg>
