<svg viewBox="0 0 34 34" xmlns="http://www.w3.org/2000/svg">
<rect width="34" height="34" rx="17"/>
<path d="M18 12C18.256 12 18.512 12.098 18.707 12.293L22.707 16.293C23.098 16.684 23.098 17.316 22.707 17.707L18.707 21.707C18.316 22.098 17.6839 22.098 17.2929 21.707C16.9019 21.316 16.9019 20.684 17.2929 20.293L19.5859 18H12C11.448 18 11 17.553 11 17C11 16.447 11.448 16 12 16H19.5859L17.2929 13.707C16.9019 13.316 16.9019 12.684 17.2929 12.293C17.4879 12.098 17.744 12 18 12Z" fill="white" fill-opacity="0.8"/>
</svg>
