<svg width="16" height="16" viewBox="0 0 16 16" fill="none" xmlns="http://www.w3.org/2000/svg">
  <path d="M8.00012 1.33334C6.83068 1.33334 5.85692 2.20715 5.69348 3.33334H2.16679C2.10053 3.33241 2.03475 3.34465 1.97327 3.36935C1.91178 3.39406 1.85582 3.43074 1.80864 3.47726C1.76145 3.52379 1.72399 3.57922 1.69841 3.64035C1.67284 3.70148 1.65967 3.76708 1.65967 3.83334C1.65967 3.89961 1.67284 3.96521 1.69841 4.02634C1.72399 4.08747 1.76145 4.1429 1.80864 4.18942C1.85582 4.23595 1.91178 4.27263 1.97327 4.29733C2.03475 4.32204 2.10053 4.33428 2.16679 4.33334H2.87903L3.71887 13.0098C3.81021 13.9541 4.59539 14.6667 5.54439 14.6667H10.4559C11.4049 14.6667 12.1897 13.9541 12.2814 13.0098L13.1212 4.33334H13.8335C13.8997 4.33428 13.9655 4.32204 14.027 4.29733C14.0885 4.27263 14.1444 4.23595 14.1916 4.18942C14.2388 4.1429 14.2763 4.08747 14.3018 4.02634C14.3274 3.96521 14.3406 3.89961 14.3406 3.83334C14.3406 3.76708 14.3274 3.70148 14.3018 3.64035C14.2763 3.57922 14.2388 3.52379 14.1916 3.47726C14.1444 3.43074 14.0885 3.39406 14.027 3.36935C13.9655 3.34465 13.8997 3.33241 13.8335 3.33334H10.3068C10.1433 2.20715 9.16956 1.33334 8.00012 1.33334ZM8.00012 2.33334C8.62651 2.33334 9.14038 2.75606 9.28723 3.33334H6.71301C6.85987 2.75606 7.37374 2.33334 8.00012 2.33334ZM6.50012 6.00001C6.77612 6.00001 7.00012 6.22368 7.00012 6.50001V11.5C7.00012 11.7763 6.77612 12 6.50012 12C6.22412 12 6.00012 11.7763 6.00012 11.5V6.50001C6.00012 6.22368 6.22412 6.00001 6.50012 6.00001ZM9.50012 6.00001C9.77612 6.00001 10.0001 6.22368 10.0001 6.50001V11.5C10.0001 11.7763 9.77612 12 9.50012 12C9.22412 12 9.00012 11.7763 9.00012 11.5V6.50001C9.00012 6.22368 9.22412 6.00001 9.50012 6.00001Z" fill="black"/>
</svg>
