<svg width="80" height="81" viewBox="0 0 80 81" fill="none" xmlns="http://www.w3.org/2000/svg">
<path d="M18.6663 5.49335C15.7197 5.49335 13.333 7.88001 13.333 10.8267V69.4933C13.333 72.44 15.7197 74.8267 18.6663 74.8267H61.333C64.2797 74.8267 66.6663 72.44 66.6663 69.4933V25.4933C66.6663 24.7867 66.3864 24.1093 65.8851 23.6079L48.5518 6.2746C48.0504 5.77326 47.373 5.49335 46.6663 5.49335H18.6663ZM45.333 10.5715L61.5882 26.8267H47.9997C46.5277 26.8267 45.333 25.632 45.333 24.16V10.5715ZM26.6663 26.8267C29.613 26.8267 31.9997 29.2133 31.9997 32.16C31.9997 35.1067 29.613 37.4933 26.6663 37.4933C23.7197 37.4933 21.333 35.1067 21.333 32.16C21.333 29.2133 23.7197 26.8267 26.6663 26.8267ZM31.9997 48.1652C33.651 48.1652 35.3022 48.7958 36.5622 50.0558L39.9997 53.4933L40.0413 53.4517L43.1611 56.5767C44.2865 57.702 46.1035 57.6916 47.2288 56.5663C48.3542 55.4409 48.3542 53.6109 47.2288 52.4829L44.1872 49.4413C46.7124 47.5793 50.276 47.7696 52.5622 50.0558L58.6663 56.16V64.16H21.333V56.16L27.4372 50.0558C28.6972 48.7958 30.3483 48.1652 31.9997 48.1652Z" fill="black"/>
</svg>
