<svg width="80" height="81" viewBox="0 0 80 81" fill="none" xmlns="http://www.w3.org/2000/svg">
<path d="M18.6663 8.16003C15.7197 8.16003 13.333 10.5467 13.333 13.4934V69.4934C13.333 72.44 15.7197 74.8267 18.6663 74.8267H61.333C64.2797 74.8267 66.6663 72.44 66.6663 69.4934V28.16C66.6663 27.4534 66.3864 26.7759 65.8851 26.2746L48.5518 8.94128C48.0504 8.43995 47.373 8.16003 46.6663 8.16003H18.6663ZM45.333 13.2382L61.5882 29.4934H47.9997C46.5277 29.4934 45.333 28.2987 45.333 26.8267V13.2382ZM25.5153 40.6132C26.334 40.6132 27.14 40.6903 27.932 40.8423C28.724 40.9943 29.4304 41.2876 30.0518 41.7329C30.6731 42.1783 31.1833 42.8052 31.5726 43.6132C31.9619 44.4238 32.1559 45.4786 32.1559 46.7746C32.1586 47.9479 31.9943 48.9403 31.6663 49.759C31.3357 50.5777 30.898 51.2443 30.3486 51.759C29.7966 52.2737 29.1572 52.6468 28.4372 52.8788C27.7145 53.1108 26.9759 53.2277 26.2132 53.2277H25.8643C25.7016 53.2277 25.535 53.2228 25.359 53.2121C25.183 53.2014 25.0062 53.1943 24.8382 53.1757C24.6702 53.1597 24.5508 53.137 24.4788 53.1184V59.5454H21.1195V41.0663C21.7595 40.9249 22.4635 40.813 23.2288 40.7329C23.9915 40.653 24.7526 40.6132 25.5153 40.6132ZM39.0622 40.6132C40.5368 40.6132 41.7682 40.8421 42.7549 41.2954C43.7415 41.7488 44.5352 42.3854 45.1299 43.2121C45.7272 44.0388 46.1448 45.0314 46.3955 46.1861C46.6435 47.3407 46.7705 48.6345 46.7705 50.0559C46.7705 51.3545 46.6511 52.5933 46.4111 53.7746C46.1711 54.9559 45.7508 55.9957 45.1455 56.8944C44.5375 57.7931 43.7192 58.5069 42.6872 59.0402C41.6552 59.5736 40.3619 59.8423 38.7965 59.8423C38.5672 59.8423 38.251 59.8297 37.859 59.8111C37.4697 59.7924 37.0618 59.7752 36.6351 59.7486C36.2084 59.7219 35.7979 59.6919 35.4059 59.6652C35.0166 59.6386 34.713 59.6088 34.4997 59.5715V40.8788C34.8197 40.8254 35.183 40.7857 35.583 40.759C35.9803 40.7323 36.3883 40.7075 36.807 40.6809C37.223 40.6542 37.6312 40.6368 38.0205 40.6288C38.4125 40.6208 38.7582 40.6132 39.0622 40.6132ZM49.4372 40.8788H58.7705V43.9725H52.8018V48.8267H58.2913V51.9204H52.8018V59.5454H49.4372V40.8788ZM25.8382 43.5975C25.2889 43.5975 24.8362 43.6449 24.4788 43.7329V50.1079C24.5855 50.1453 24.7845 50.175 25.0778 50.2017C25.3711 50.2284 25.5753 50.2382 25.682 50.2382C26.0713 50.2382 26.4444 50.1886 26.8018 50.0819C27.1564 49.9752 27.4725 49.7937 27.7445 49.535C28.0218 49.2764 28.2434 48.9207 28.4007 48.4673C28.5634 48.014 28.6403 47.4419 28.6403 46.7486C28.6403 46.1619 28.5631 45.6618 28.4111 45.2538C28.2591 44.8458 28.0578 44.5198 27.8018 44.2798C27.5431 44.0398 27.2419 43.8657 26.9059 43.759C26.5673 43.6523 26.2115 43.5975 25.8382 43.5975ZM39.4111 43.7069C39.1285 43.7069 38.8399 43.7119 38.5465 43.7225C38.2559 43.7305 38.0243 43.7504 37.8643 43.785V56.6392C37.9203 56.6552 38.0122 56.6729 38.1455 56.6809C38.2788 56.6889 38.4233 56.6989 38.5726 56.7069C38.7219 56.7149 38.8611 56.7249 38.9945 56.7329C39.1278 56.7409 39.2224 56.7486 39.2757 56.7486C40.0757 56.7486 40.7323 56.5594 41.2497 56.1861C41.7617 55.8127 42.1725 55.3126 42.4632 54.6913C42.7565 54.0699 42.9579 53.3534 43.0726 52.5454C43.1873 51.7374 43.2497 50.8866 43.2497 49.9986C43.2497 49.1799 43.1973 48.3941 43.0986 47.6288C43.008 46.8661 42.8187 46.1918 42.5413 45.6132C42.264 45.0372 41.8787 44.5744 41.3747 44.2277C40.868 43.8811 40.2085 43.7069 39.4111 43.7069Z" fill="black"/>
</svg>
