<svg width="80" height="81" viewBox="0 0 80 81" fill="none" xmlns="http://www.w3.org/2000/svg">
<path d="M65.885 23.608L48.5517 6.27468C48.0503 5.77335 47.373 5.49335 46.6663 5.49335H18.6663C15.7197 5.49335 13.333 7.88001 13.333 10.8267V69.4933C13.333 72.44 15.7197 74.8267 18.6663 74.8267H61.333C64.2797 74.8267 66.6663 72.44 66.6663 69.4933V25.4933C66.6663 24.7867 66.3863 24.1093 65.885 23.608ZM32.6103 40.6773H29.2503V56.16H25.5863V40.6773H22.253V37.2907H32.6103V40.6773ZM42.6103 56.16L41.4343 52.688C41.0717 51.5973 40.7357 50.5307 40.4263 49.328H40.3437C40.037 50.5307 39.7543 51.68 39.477 52.744L38.4663 56.16H34.8263L38.3543 46.5014L34.965 37.2933H38.773L39.893 40.792C40.173 41.7733 40.453 42.752 40.733 43.816H40.789C41.0957 42.6693 41.349 41.7733 41.6023 40.7387L42.5517 37.296H46.2183L42.6903 46.6747L46.4157 56.16H42.6103ZM58.8743 40.6773H55.5143V56.16H51.8477V40.6773H48.5143V37.2907H58.8717L58.8743 40.6773ZM47.9997 26.8267C46.5277 26.8267 45.333 25.632 45.333 24.16V10.5707L61.589 26.8267H47.9997Z" fill="black"/>
</svg>
