<svg width="80" height="81" viewBox="0 0 80 81" fill="none" xmlns="http://www.w3.org/2000/svg">
<path d="M65.885 23.678L48.5517 6.34469C48.0503 5.84335 47.373 5.56335 46.6663 5.56335H18.6663C15.7197 5.56335 13.333 7.95002 13.333 10.8967V69.5634C13.333 72.51 15.7197 74.8967 18.6663 74.8967H61.333C64.2797 74.8967 66.6663 72.51 66.6663 69.5634V25.5634C66.6663 24.8567 66.3863 24.1794 65.885 23.678ZM29.9943 57.0674L28.8103 53.582C28.4397 52.4834 28.1197 51.4407 27.7917 50.2327H27.7303C27.4237 51.4354 27.1197 52.566 26.837 53.654L25.8343 57.0674H22.1917L25.7117 47.4007L22.325 38.1607H26.1543L27.2583 41.654C27.557 42.6434 27.8317 43.6194 28.1223 44.6994H28.1783C28.485 43.5554 28.725 42.638 28.973 41.614L29.9303 38.1607H33.6103L30.0663 47.5527L33.805 57.0674H29.9943ZM45.381 57.0674H36.861V38.1607H40.5437V53.95H45.3783L45.381 57.0674ZM50.853 57.2354C49.3277 57.2354 47.861 56.854 47.229 56.478L47.7597 53.2994C48.5197 53.7367 49.8237 54.0407 50.869 54.0407C52.6023 54.0407 53.469 53.1394 53.469 51.8967C53.469 50.5474 52.613 49.854 51.0103 48.83C48.4263 47.2434 47.4477 45.262 47.4477 43.5474C47.4477 40.51 49.461 37.9954 53.421 37.9954C54.677 37.9954 55.845 38.3447 56.3917 38.6727L55.805 41.8354C55.2663 41.4967 54.461 41.19 53.4023 41.19C51.8263 41.19 51.0717 42.142 51.0717 43.142C51.0717 44.2754 51.6423 44.8727 53.6717 46.0967C56.181 47.6034 57.0903 49.518 57.0903 51.502C57.0903 54.974 54.5383 57.2354 50.853 57.2354ZM47.9997 26.8967C46.5277 26.8967 45.333 25.702 45.333 24.23V10.6407L61.589 26.8967H47.9997Z" fill="black"/>
</svg>
