<svg width="32" height="32" viewBox="0 0 32 32" fill="none" xmlns="http://www.w3.org/2000/svg">
<path fill-rule="evenodd" clip-rule="evenodd" d="M16 32C24.8366 32 32 24.8366 32 16C32 7.16344 24.8366 0 16 0C7.16344 0 0 7.16344 0 16C0 24.8366 7.16344 32 16 32ZM12.279 12.279C12.279 10.2306 13.9516 8.55812 16 8.55812C18.0484 8.55812 19.7209 10.2306 19.7209 12.279C19.7209 14.3274 18.0484 16 16 16C13.9516 16 12.279 14.3274 12.279 12.279ZM10.0465 18.9687C10.0465 18.1576 10.7158 17.4884 11.5269 17.4884H20.4731C21.2842 17.4884 21.9542 18.1576 21.9542 18.9687V20.093H21.8648C21.6622 21.1582 20.9394 22.0049 19.9789 22.5349C18.8524 23.1564 17.4258 23.4418 16 23.4418C14.5741 23.4418 13.1475 23.1564 12.021 22.5349C10.8946 21.9134 10.0465 20.8759 10.0465 19.5349V18.9687Z" fill="black" fill-opacity="0.1"/>
<path d="M15.9995 8.67188C13.9809 8.67188 12.3328 10.32 12.3328 12.3385C12.3328 14.3571 13.9809 16.0052 15.9995 16.0052C18.018 16.0052 19.6661 14.3571 19.6661 12.3385C19.6661 10.32 18.018 8.67188 15.9995 8.67188ZM11.5916 17.4719C10.7923 17.4719 10.1328 18.1314 10.1328 18.9307V19.4885C10.1328 20.8101 10.9685 21.8324 12.0786 22.4448C13.1886 23.0572 14.5944 23.3385 15.9995 23.3385C17.4045 23.3385 18.8103 23.0572 19.9204 22.4448C20.8668 21.9226 21.5792 21.0882 21.7788 20.0385H21.8669V18.9307C21.8669 18.1314 21.2066 17.4719 20.4074 17.4719H11.5916Z" fill="white" fill-opacity="0.64"/>
</svg>
