<svg width="25" height="21" viewBox="0 0 25 21" fill="none" xmlns="http://www.w3.org/2000/svg">
<path d="M7 1.59V0.5C5.07936 0.512484 3.46709 1.28423 2.11339 2.64678C0.759699 4.00933 -4.05733e-05 5.85204 1.62513e-09 7.77273H1.09091C1.09091 6.13321 1.74221 4.56084 2.90152 3.40152C4.06084 2.24221 5.36048 1.59 7 1.59Z" fill="black" fill-opacity="0.4"/>
<path d="M1.09091 7.77344H0V13.228H1.09091V7.77344Z" fill="black" fill-opacity="0.4"/>
<path d="M0.821811 16.5211L0.0363548 19.3466C-0.00120896 19.5012 0.00163882 19.6628 0.0446112 19.816C0.0875835 19.9692 0.169235 20.1087 0.281727 20.2212C0.394219 20.3337 0.533771 20.4153 0.686945 20.4583C0.84012 20.5013 1.00177 20.5041 1.15636 20.4666L3.98181 19.6775C4.99727 20.2107 5.85309 20.4924 7 20.4993V19.4093C5.94939 19.4111 5.1888 19.1409 4.27273 18.6266C4.14615 18.5569 3.9972 18.5399 3.85818 18.5793L1.17091 19.3284L1.92363 16.6448C1.96153 16.5052 1.94326 16.3564 1.87273 16.2302C1.35987 15.3122 1.09072 14.2781 1.09091 13.2266H0C0.00807004 14.3745 0.289796 15.5039 0.821811 16.5211Z" fill="black" fill-opacity="0.4"/>
<path d="M17 0.5H7V1.59H17V0.5Z" fill="black" fill-opacity="0.4"/>
<path d="M8.69638 11.4489C8.48615 11.4489 8.30575 11.3736 8.15518 11.223C8.00462 11.0724 7.92933 10.892 7.92933 10.6818C7.92933 10.4716 8.00462 10.2912 8.15518 10.1406C8.30575 9.99006 8.48615 9.91477 8.69638 9.91477C8.90661 9.91477 9.087 9.99006 9.23757 10.1406C9.38814 10.2912 9.46342 10.4716 9.46342 10.6818C9.46342 10.821 9.42791 10.9489 9.35689 11.0653C9.28871 11.1818 9.19638 11.2756 9.0799 11.3466C8.96626 11.4148 8.83842 11.4489 8.69638 11.4489ZM12.0011 11.4489C11.7908 11.4489 11.6104 11.3736 11.4599 11.223C11.3093 11.0724 11.234 10.892 11.234 10.6818C11.234 10.4716 11.3093 10.2912 11.4599 10.1406C11.6104 9.99006 11.7908 9.91477 12.0011 9.91477C12.2113 9.91477 12.3917 9.99006 12.5423 10.1406C12.6928 10.2912 12.7681 10.4716 12.7681 10.6818C12.7681 10.821 12.7326 10.9489 12.6616 11.0653C12.5934 11.1818 12.5011 11.2756 12.3846 11.3466C12.271 11.4148 12.1431 11.4489 12.0011 11.4489ZM15.3058 11.4489C15.0955 11.4489 14.9151 11.3736 14.7646 11.223C14.614 11.0724 14.5387 10.892 14.5387 10.6818C14.5387 10.4716 14.614 10.2912 14.7646 10.1406C14.9151 9.99006 15.0955 9.91477 15.3058 9.91477C15.516 9.91477 15.6964 9.99006 15.8469 10.1406C15.9975 10.2912 16.0728 10.4716 16.0728 10.6818C16.0728 10.821 16.0373 10.9489 15.9663 11.0653C15.8981 11.1818 15.8058 11.2756 15.6893 11.3466C15.5756 11.4148 15.4478 11.4489 15.3058 11.4489Z" fill="black" fill-opacity="0.4"/>
<path d="M17 19.4063L7 19.4062V20.4963H17V19.4063Z" fill="black" fill-opacity="0.4"/>
<path d="M17.0327 0.5H17V1.59091C18.6395 1.59091 20.2119 2.24221 21.3712 3.40152C22.5305 4.56084 23.1818 6.13321 23.1818 7.77273H24.2727C24.2727 5.84954 23.511 4.00463 22.1542 2.64167C20.7973 1.2787 18.9559 0.508654 17.0327 0.5V0.5Z" fill="black" fill-opacity="0.4"/>
<path d="M24.2706 7.77344H23.1797V13.228H24.2706V7.77344Z" fill="black" fill-opacity="0.4"/>
<path d="M17 19.4084V20.4993C17.9551 20.4993 18.9008 20.3112 19.7831 19.9457C20.6655 19.5802 21.4673 19.0445 22.1426 18.3692C22.8179 17.6938 23.3536 16.8921 23.7191 16.0097C24.0846 15.1274 24.2727 14.1816 24.2727 13.2266H23.1818C23.1818 14.8661 22.5305 16.4385 21.3712 17.5978C20.2119 18.7571 18.6395 19.4084 17 19.4084V19.4084Z" fill="black" fill-opacity="0.4"/>
</svg>
