<svg width="19" height="19" viewBox="0 0 19 19" fill="none" xmlns="http://www.w3.org/2000/svg">
<path d="M6.46094 2.375C5.12146 2.375 4.02344 3.47302 4.02344 4.8125V16.0625C4.02347 16.166 4.05207 16.2676 4.1061 16.3559C4.16013 16.4442 4.23748 16.5159 4.32965 16.5631C4.42181 16.6103 4.52521 16.6311 4.62845 16.6233C4.7317 16.6155 4.83078 16.5793 4.91479 16.5188L9.27344 13.3804L13.6321 16.5188C13.7161 16.5793 13.8152 16.6155 13.9184 16.6233C14.0217 16.6311 14.1251 16.6103 14.2172 16.5631C14.3094 16.5159 14.3867 16.4442 14.4408 16.3559C14.4948 16.2676 14.5234 16.166 14.5234 16.0625V4.8125C14.5234 3.47302 13.4254 2.375 12.0859 2.375H6.46094ZM6.46094 3.5H12.0859C12.8172 3.5 13.3984 4.08123 13.3984 4.8125V14.9646L9.60229 12.2312C9.50653 12.1622 9.39148 12.1251 9.27344 12.1251C9.1554 12.1251 9.04035 12.1622 8.94458 12.2312L5.14844 14.9646V4.8125C5.14844 4.08123 5.72966 3.5 6.46094 3.5Z" fill="black" fill-opacity="0.4"/>
</svg>
