<svg viewBox="0 0 25 25" xmlns="http://www.w3.org/2000/svg">
<path fill-rule="evenodd" clip-rule="evenodd" d="M12.5015 5.8269C9.71497 5.8269 7.47703 7.33054 5.97859 8.74989C4.55464 10.0987 3.706 11.4574 3.57328 11.6776C3.42042 11.9089 3.32666 12.1867 3.32666 12.49C3.32666 12.726 3.38113 12.9835 3.52319 13.2269L3.57981 13.3239C3.60032 13.3623 3.6247 13.4071 3.65296 13.4576C3.74689 13.6256 3.88462 13.8591 4.06668 14.1363C4.42989 14.6892 4.9749 15.4241 5.70719 16.1603C7.16859 17.6296 9.42906 19.1531 12.5015 19.1531C15.5601 19.1531 17.812 17.6432 19.2718 16.1811C20.0032 15.4486 20.5488 14.7161 20.9144 14.1622C21.0976 13.8845 21.2368 13.6498 21.3327 13.4797C21.3806 13.3946 21.4178 13.3255 21.4442 13.2752L21.4488 13.2664C21.469 13.2354 21.4858 13.2051 21.4998 13.1766C21.6056 12.9788 21.6763 12.7447 21.6763 12.49C21.6763 12.1796 21.5781 11.8959 21.4188 11.6615C21.4088 11.6443 21.17 11.2538 20.7783 10.7299C20.3718 10.1862 19.7809 9.46967 19.026 8.75479C17.5296 7.32937 15.2827 5.8269 12.5015 5.8269ZM5.10784 12.645C5.07131 12.5796 5.04427 12.5289 5.02669 12.4951C5.05042 12.4569 5.08826 12.397 5.13987 12.3187C5.23482 12.1746 5.37487 11.9704 5.55718 11.7265C5.92281 11.2374 6.45313 10.5954 7.12506 9.95895C8.48459 8.67117 10.3296 7.49268 12.5015 7.49268C14.6696 7.49268 16.5235 8.67189 17.877 9.96142L17.8789 9.96319C19.0356 11.0585 19.7631 12.1613 19.972 12.4903L19.913 12.5914L19.9133 12.6033C19.9033 12.6216 19.8923 12.6413 19.8804 12.6624C19.8015 12.8024 19.6824 13.0035 19.5231 13.245C19.2033 13.7295 18.7264 14.3691 18.0921 15.0045C16.8204 16.2781 14.9678 17.4874 12.5015 17.4874C10.0239 17.4874 8.16334 16.2669 6.88916 14.9859C6.25366 14.347 5.77724 13.7052 5.45992 13.2221C5.30172 12.9812 5.18441 12.7819 5.10784 12.645ZM12.4998 9.92791C11.1179 9.92791 9.99821 11.047 9.99821 12.4282C9.99821 13.8094 11.1179 14.9285 12.4998 14.9285C13.8817 14.9285 15.0015 13.8094 15.0015 12.4282C15.0015 11.047 13.8817 9.92791 12.4998 9.92791ZM11.6649 12.4282C11.6649 11.967 12.0384 11.5937 12.4998 11.5937C12.9613 11.5937 13.3348 11.967 13.3348 12.4282C13.3348 12.8894 12.9613 13.2627 12.4998 13.2627C12.0384 13.2627 11.6649 12.8894 11.6649 12.4282Z"/>
</svg>
